# xmcd
#
# Track frame offsets: 
#        150
#        13998
#        29543
#        41320
#        55110
#        68585
#        82635
#        96043
#        113955
#        137675
#        156973
#        177590
#        194163
#        207743
#        221730
#        236273
#        249740
#        264825
#        279673
#        292705
#
# Disc length: 4100 seconds
#
# Revision: 3
# Processed by: cddbd v1.5.1PL2 Copyright (c) Steve Scherf et al.
# Submitted via: ExactAudioCopy v0.95a5
#
DISCID=22100214
DTITLE=Louis Armstrong - POPS: The 1940's Small-Band Sides
DYEAR=1987
DGENRE=Jazz
TTITLE0=I Want a Little Girl
TTITLE1=Sugar
TTITLE2=Blues for Yesterday
TTITLE3=Blues in the South
TTITLE4=Do You Know What it Means to Miss New Orleans
TTITLE5=Where the Blues Were Born in New Orleans
TTITLE6=Mahogany Hall Stomp
TTITLE7=Ain't Misbehavin'
TTITLE8=Rockin' Chair
TTITLE9=Back O' Town Blues
TTITLE10=Save It, Pretty Mama
TTITLE11=St. James Infirmary
TTITLE12=Jack-Armstrong Blues
TTITLE13=Rockin' Chair
TTITLE14=Someday You'll Be Sorry
TTITLE15=Fifty-Fifty Blues
TTITLE16=A Song Was Born
TTITLE17=Please Stop Playing Those Blues, Boy
TTITLE18=Before Long
TTITLE19=Lovely Weather We're Having
EXTD=
EXTT0=
EXTT1=
EXTT2=
EXTT3=
EXTT4=
EXTT5=
EXTT6=
EXTT7=
EXTT8=Concert Version\n
EXTT9=
EXTT10=
EXTT11=
EXTT12=
EXTT13=Studio Version\n
EXTT14=
EXTT15=
EXTT16=
EXTT17=
EXTT18=
EXTT19=
PLAYORDER=
